# Blender v2.80 (sub 75) OBJ File: 'Christmas Tree.blend'
# www.blender.org
mtllib gift.mtl
o Cube.002_Cube.003
v -0.008179 0.147745 0.123720
v -0.008179 0.256678 0.123720
v -0.125684 0.147745 -0.001703
v -0.125684 0.256678 -0.001703
v 0.117244 0.147745 0.006214
v 0.117244 0.256678 0.006214
v -0.000262 0.147745 -0.119208
v -0.000262 0.256678 -0.119208
v -0.066932 0.256678 0.061008
v -0.066932 0.147745 0.061008
v 0.058491 0.256678 -0.056497
v 0.058491 0.147745 -0.056497
v -0.037555 0.147745 0.092364
v 0.087867 0.256678 -0.025141
v -0.037555 0.256678 0.092364
v 0.087867 0.147745 -0.025141
v -0.096308 0.256678 0.029653
v 0.029114 0.147745 -0.087853
v -0.096308 0.147745 0.029653
v 0.029114 0.256678 -0.087853
v -0.062973 0.256678 -0.060456
v -0.062973 0.147745 -0.060456
v 0.054532 0.256678 0.064967
v 0.054532 0.147745 0.064967
v -0.004220 0.256678 0.002256
v -0.004220 0.147745 0.002256
v 0.025156 0.147745 0.033611
v 0.025156 0.256678 0.033611
v -0.033597 0.256678 -0.029100
v -0.033597 0.147745 -0.029100
v -0.094329 0.147745 -0.031079
v 0.023177 0.256678 0.094343
v -0.035576 0.256678 0.031632
v -0.006200 0.256678 0.062988
v -0.064952 0.256678 0.000276
v -0.094329 0.256678 -0.031079
v 0.023177 0.147745 0.094343
v -0.035576 0.147745 0.031632
v -0.006200 0.147745 0.062988
v -0.064952 0.147745 0.000276
v -0.031618 0.256678 -0.089832
v 0.085888 0.147745 0.035591
v 0.027135 0.147745 -0.027121
v 0.056512 0.147745 0.004235
v -0.002241 0.147745 -0.058476
v -0.031618 0.147745 -0.089832
v 0.085888 0.256678 0.035591
v 0.027135 0.256678 -0.027121
v 0.056512 0.256678 0.004235
v -0.002241 0.256678 -0.058476
vn -0.7298 0.0000 0.6837
vn -0.6837 0.0000 -0.7298
vn 0.7298 0.0000 -0.6837
vn 0.6837 0.0000 0.7298
vn 0.0000 -1.0000 0.0000
vn 0.0000 1.0000 -0.0000
usemtl Material.010
s off
f 17//1 4//1 3//1 19//1
f 41//2 8//2 7//2 46//2
f 14//3 6//3 5//3 16//3
f 32//4 2//4 1//4 37//4
f 45//5 46//5 7//5 18//5
f 35//6 36//6 4//6 17//6
f 2//1 15//1 13//1 1//1
f 42//5 44//5 16//5 5//5
f 32//6 34//6 15//6 2//6
f 8//3 20//3 18//3 7//3
f 4//2 36//2 31//2 3//2
f 19//5 3//5 31//5 40//5
f 1//5 13//5 39//5 37//5
f 6//4 47//4 42//4 5//4
f 20//6 8//6 41//6 50//6
f 6//6 14//6 49//6 47//6
usemtl Material.011
f 34//6 33//6 9//6 15//6
f 44//5 43//5 12//5 16//5
f 20//3 11//3 12//3 18//3
f 15//1 9//1 10//1 13//1
f 11//3 14//3 16//3 12//3
f 33//6 35//6 17//6 9//6
f 43//5 45//5 18//5 12//5
f 9//1 17//1 19//1 10//1
f 38//5 40//5 30//5 26//5
f 48//6 50//6 29//6 25//6
f 47//6 49//6 28//6 23//6
f 37//5 39//5 27//5 24//5
f 39//5 38//5 26//5 27//5
f 49//6 48//6 25//6 28//6
f 50//6 41//6 21//6 29//6
f 40//5 31//5 22//5 30//5
f 47//4 23//4 24//4 42//4
f 36//2 21//2 22//2 31//2
f 13//5 10//5 38//5 39//5
f 10//5 19//5 40//5 38//5
f 25//6 29//6 35//6 33//6
f 23//6 28//6 34//6 32//6
f 28//6 25//6 33//6 34//6
f 29//6 21//6 36//6 35//6
f 23//4 32//4 37//4 24//4
f 14//6 11//6 48//6 49//6
f 11//6 20//6 50//6 48//6
f 26//5 30//5 45//5 43//5
f 24//5 27//5 44//5 42//5
f 27//5 26//5 43//5 44//5
f 30//5 22//5 46//5 45//5
f 21//2 41//2 46//2 22//2
o Cube.001_Cube.002
v -0.119804 0.001918 0.117839
v -0.119804 0.148436 0.117839
v -0.119804 0.001918 -0.113328
v -0.119804 0.148436 -0.113328
v 0.111363 0.001918 0.117839
v 0.111363 0.148436 0.117839
v 0.111363 0.001918 -0.113328
v 0.111363 0.148436 -0.113328
v -0.119804 0.148436 0.002256
v -0.119804 0.001918 0.002256
v 0.111363 0.148436 0.002256
v 0.111363 0.001918 0.002256
v -0.119804 0.001918 0.060047
v 0.111363 0.148436 0.060047
v -0.119804 0.148436 0.060047
v 0.111363 0.001918 0.060047
v -0.119804 0.148436 -0.055536
v 0.111363 0.001918 -0.055536
v -0.119804 0.001918 -0.055536
v 0.111363 0.148436 -0.055536
v -0.004220 0.148436 -0.113328
v -0.004220 0.001918 -0.113328
v -0.004220 0.148436 0.117839
v -0.004220 0.001918 0.117839
v -0.004220 0.148436 0.002256
v -0.004220 0.001918 0.002256
v -0.004220 0.001918 0.060047
v -0.004220 0.148436 0.060047
v -0.004220 0.148436 -0.055536
v -0.004220 0.001918 -0.055536
v -0.062012 0.001918 -0.113328
v -0.062012 0.148436 0.117839
v -0.062012 0.148436 0.002256
v -0.062012 0.148436 0.060047
v -0.062012 0.148436 -0.055536
v -0.062012 0.148436 -0.113328
v -0.062012 0.001918 0.117839
v -0.062012 0.001918 0.002256
v -0.062012 0.001918 0.060047
v -0.062012 0.001918 -0.055536
v 0.053571 0.148436 -0.113328
v 0.053571 0.001918 0.117839
v 0.053571 0.001918 0.002256
v 0.053571 0.001918 0.060047
v 0.053571 0.001918 -0.055536
v 0.053571 0.001918 -0.113328
v 0.053571 0.148436 0.117839
v 0.053571 0.148436 0.002256
v 0.053571 0.148436 0.060047
v 0.053571 0.148436 -0.055536
vn -1.0000 0.0000 0.0000
vn 0.0000 0.0000 -1.0000
vn 1.0000 0.0000 0.0000
vn 0.0000 0.0000 1.0000
vn 0.0000 -1.0000 0.0000
vn 0.0000 1.0000 0.0000
usemtl Material.010
s off
f 67//7 54//7 53//7 69//7
f 91//8 58//8 57//8 96//8
f 64//9 56//9 55//9 66//9
f 82//10 52//10 51//10 87//10
f 95//11 96//11 57//11 68//11
f 85//12 86//12 54//12 67//12
f 52//7 65//7 63//7 51//7
f 92//11 94//11 66//11 55//11
f 82//12 84//12 65//12 52//12
f 58//9 70//9 68//9 57//9
f 54//8 86//8 81//8 53//8
f 69//11 53//11 81//11 90//11
f 51//11 63//11 89//11 87//11
f 56//10 97//10 92//10 55//10
f 70//12 58//12 91//12 100//12
f 56//12 64//12 99//12 97//12
usemtl Material.011
f 84//12 83//12 59//12 65//12
f 94//11 93//11 62//11 66//11
f 70//9 61//9 62//9 68//9
f 65//7 59//7 60//7 63//7
f 61//9 64//9 66//9 62//9
f 83//12 85//12 67//12 59//12
f 93//11 95//11 68//11 62//11
f 59//7 67//7 69//7 60//7
f 88//11 90//11 80//11 76//11
f 98//12 100//12 79//12 75//12
f 97//12 99//12 78//12 73//12
f 87//11 89//11 77//11 74//11
f 89//11 88//11 76//11 77//11
f 99//12 98//12 75//12 78//12
f 100//12 91//12 71//12 79//12
f 90//11 81//11 72//11 80//11
f 97//10 73//10 74//10 92//10
f 86//8 71//8 72//8 81//8
f 63//11 60//11 88//11 89//11
f 60//11 69//11 90//11 88//11
f 75//12 79//12 85//12 83//12
f 73//12 78//12 84//12 82//12
f 78//12 75//12 83//12 84//12
f 79//12 71//12 86//12 85//12
f 73//10 82//10 87//10 74//10
f 64//12 61//12 98//12 99//12
f 61//12 70//12 100//12 98//12
f 76//11 80//11 95//11 93//11
f 74//11 77//11 94//11 92//11
f 77//11 76//11 93//11 94//11
f 80//11 72//11 96//11 95//11
f 71//8 91//8 96//8 72//8
