# Blender v2.80 (sub 75) OBJ File: 'Igloo.blend'
# www.blender.org
mtllib Igloo.mtl
o Cylinder.000_Cylinder.005
v -0.586201 0.000316 -0.273962
v -0.797063 -0.000000 -0.269746
v -0.797063 0.158553 -0.218229
v -0.571242 0.158553 -0.218229
v -0.621699 -0.000000 -0.222070
v -0.797063 -0.000000 -0.222070
v -0.797063 0.130530 -0.179659
v -0.797063 0.256544 -0.083356
v -0.574372 0.256544 -0.083356
v -0.590324 0.130530 -0.179658
v -0.797063 0.211201 -0.068623
v -0.797063 0.256544 0.083356
v -0.577394 0.256544 0.083356
v -0.578173 0.256544 0.080373
v -0.577876 0.256544 -0.069826
v -0.585779 0.211201 -0.068623
v -0.797063 0.158553 0.218229
v -0.573469 0.158553 0.218229
v -0.586050 0.211201 0.068623
v -0.797063 0.211201 0.068623
v -0.797063 0.130530 0.179659
v -0.797063 -0.000000 0.269746
v -0.594212 -0.000000 0.269746
v -0.599721 0.046497 0.254638
v -0.592474 0.130530 0.179659
v -0.797063 -0.000000 0.222070
v -0.623054 -0.000000 0.222070
v 0.222663 0.336306 0.653810
v 0.509359 0.390107 0.392450
v 0.119259 0.622987 0.316000
v -0.151078 0.382657 0.622148
v 0.440069 -0.008572 0.599770
v 0.315523 0.632825 0.008420
v -0.192644 0.623202 0.197290
v 0.032495 -0.010313 0.735866
v 0.693314 -0.005652 0.230668
v 0.655223 0.350841 0.003664
v -0.468878 0.336977 0.400903
v -0.374165 -0.010929 0.591839
v 0.125203 0.641221 -0.299482
v 0.515421 0.408700 -0.385078
v -0.189444 0.633081 -0.176173
v -0.554981 0.388816 0.007510
v 0.695673 0.001745 -0.229971
v 0.231670 0.363871 -0.649419
v -0.142739 0.408469 -0.613838
v 0.445889 0.008543 -0.600809
v -0.464327 0.350909 -0.390031
v 0.038919 0.008459 -0.736974
v -0.369627 0.002242 -0.590555
v -0.484403 0.002379 -0.187740
v -0.465662 0.134938 -0.181916
v -0.471209 0.216863 -0.057844
v -0.471457 0.216863 0.067731
v -0.467524 0.134938 0.182986
v -0.510388 -0.005180 0.190045
v 0.198084 0.283549 0.547154
v 0.437777 0.328529 0.328643
v 0.104966 0.558774 0.246607
v -0.114383 0.322301 0.520683
v 0.379847 -0.004788 0.501974
v 0.257282 0.566410 0.007901
v -0.137095 0.558941 0.154479
v 0.039094 -0.006243 0.615758
v 0.591574 -0.002346 0.193385
v 0.559727 0.295701 0.003598
v -0.380081 0.284110 0.335711
v -0.300896 -0.006758 0.495344
v 0.109579 0.572925 -0.231053
v 0.442846 0.344074 -0.321410
v -0.134611 0.566608 -0.135357
v -0.452067 0.327450 0.006814
v 0.593546 0.003838 -0.191734
v 0.205615 0.306595 -0.542414
v -0.107411 0.343881 -0.512666
v 0.384713 0.009522 -0.501773
v -0.376276 0.295758 -0.325551
v 0.044465 0.009451 -0.615614
v -0.297101 0.004253 -0.493200
vn -0.9236 0.2732 -0.2688
vn 0.0000 0.8090 -0.5878
vn -0.0000 -0.3090 0.9511
vn 0.0000 1.0000 0.0000
vn 0.0144 -0.8224 0.5688
vn -0.0000 0.8090 0.5878
vn 0.0000 -1.0000 0.0000
vn -1.0000 0.0000 0.0000
vn 0.0000 0.3090 0.9511
vn 0.0400 -0.8117 -0.5828
vn 0.0000 -0.3090 -0.9511
vn 0.3502 0.7643 0.5415
vn 0.0411 0.7680 0.6392
vn 0.6190 0.2750 0.7357
vn 0.4421 0.8420 0.3090
vn -0.1889 0.8465 0.4978
vn -0.0500 0.2560 0.9654
vn 0.3161 0.0508 0.9474
vn 0.8147 0.1497 0.5602
vn 0.6318 0.7584 0.1604
vn -0.4400 0.7623 0.4746
vn -0.3318 0.1159 0.9362
vn 0.9043 0.2938 0.3096
vn 0.6336 0.7652 -0.1140
vn -0.6114 0.7561 0.2335
vn -0.5762 0.2671 0.7725
vn 0.9938 0.1106 0.0069
vn 0.4526 0.8540 -0.2565
vn 0.9121 0.2957 -0.2840
vn -0.5495 0.8353 0.0174
vn -0.9245 0.2950 0.2412
vn 0.3538 0.7824 -0.5125
vn -0.2042 0.8619 -0.4641
vn 0.8208 0.1539 -0.5501
vn -0.6145 0.7597 -0.2126
vn -0.9852 0.1717 -0.0019
vn 0.6301 0.2808 -0.7240
vn 0.0356 0.7884 -0.6141
vn -0.4487 0.7747 -0.4455
vn 0.3167 0.0614 -0.9465
vn -0.0593 0.2690 -0.9613
vn -0.5816 0.2811 -0.7634
vn -0.3361 0.1343 -0.9322
vn -0.3729 -0.7390 -0.5612
vn -0.0354 -0.7425 -0.6689
vn -0.6190 -0.2750 -0.7357
vn -0.4799 -0.8120 -0.3322
vn 0.2050 -0.8162 -0.5402
vn 0.0500 -0.2560 -0.9654
vn -0.3161 -0.0508 -0.9474
vn -0.8147 -0.1497 -0.5602
vn 0.7640 0.6447 0.0236
vn -0.6582 -0.7327 -0.1730
vn 0.2608 0.6812 -0.6841
vn 0.4557 -0.7345 -0.5029
vn 0.3318 -0.1159 -0.9362
vn -0.9043 -0.2938 -0.3096
vn -0.6821 0.6014 -0.4160
vn -0.6605 -0.7399 0.1274
vn -0.6785 0.5916 0.4355
vn 0.6450 -0.7265 -0.2369
vn 0.5762 -0.2671 -0.7725
vn -0.9938 -0.1106 -0.0069
vn -0.4905 -0.8250 0.2807
vn 0.2618 0.6526 0.7111
vn -0.9121 -0.2957 0.2840
vn 0.5970 -0.8021 -0.0161
vn 0.0000 -0.8090 -0.5878
vn -0.3763 -0.7582 0.5325
vn 0.2205 -0.8329 0.5076
vn -0.8208 -0.1539 0.5501
vn 0.6476 -0.7304 0.2173
vn 0.9852 -0.1717 0.0019
vn -0.6301 -0.2808 0.7240
vn -0.0298 -0.7641 0.6444
vn 0.4643 -0.7477 0.4748
vn -0.3167 -0.0614 0.9465
vn 0.0593 -0.2690 0.9613
vn 0.5816 -0.2811 0.7634
vn 0.3361 -0.1343 0.9322
vn 0.0179 -0.9998 0.0074
vn -0.0026 -1.0000 0.0083
vn -0.0218 -0.9998 -0.0036
vn -0.0265 -0.9995 -0.0162
vn -0.0236 -0.9994 -0.0241
vn -0.0072 -0.9994 -0.0343
vn 0.0132 -0.9994 -0.0331
vn 0.8213 -0.0859 -0.5640
vn -0.1191 -0.1472 -0.9819
vn -0.0094 0.3211 -0.9470
vn -0.0124 -0.9999 -0.0101
vn -0.8220 0.0775 0.5642
vn 0.9245 -0.2950 -0.2412
vn 0.0494 -0.9988 0.0001
vn -0.0000 -0.8090 0.5878
vn 0.9233 -0.2647 0.2782
vn 0.8507 -0.0687 0.5212
vn 0.0008 -1.0000 -0.0029
vn -0.8215 0.0997 -0.5614
vn 0.0177 -0.9998 0.0054
vn 0.0161 -0.9999 0.0049
vn -0.1160 -0.1577 0.9807
usemtl Material.001
s off
f 15//1 43//1 48//1 1//1 4//1 9//1
f 4//2 3//2 8//2 9//2
f 10//3 7//3 6//3 5//3
f 9//4 8//4 12//4 13//4 14//4 15//4
f 52//5 53//5 16//5 10//5
f 13//6 12//6 17//6 18//6
f 19//7 20//7 11//7 16//7
f 21//8 26//8 22//8 17//8 12//8 8//8 3//8 2//8 6//8 7//8 11//8 20//8
f 18//9 17//9 22//9 23//9 24//9
f 54//10 55//10 25//10 19//10
f 27//11 26//11 21//11 25//11
f 28//12 29//12 30//12
f 31//13 28//13 30//13
f 32//14 29//14 28//14
f 30//15 29//15 33//15
f 34//16 31//16 30//16
f 35//17 28//17 31//17
f 35//18 32//18 28//18
f 32//19 36//19 29//19
f 29//20 37//20 33//20
f 38//21 31//21 34//21
f 39//22 35//22 31//22
f 36//23 37//23 29//23
f 37//24 41//24 33//24
f 43//25 38//25 34//25
f 39//26 31//26 38//26
f 36//27 44//27 37//27
f 33//28 41//28 40//28
f 44//29 41//29 37//29
f 42//30 43//30 34//30
f 24//31 38//31 43//31 14//31 13//31 18//31
f 41//32 45//32 40//32
f 40//33 46//33 42//33
f 44//34 47//34 41//34
f 48//35 43//35 42//35
f 14//36 43//36 15//36
f 47//37 45//37 41//37
f 45//38 46//38 40//38
f 46//39 48//39 42//39
f 47//40 49//40 45//40
f 49//41 46//41 45//41
f 50//42 48//42 46//42
f 49//43 50//43 46//43
f 57//44 59//44 58//44
f 60//45 59//45 57//45
f 61//46 57//46 58//46
f 59//47 62//47 58//47
f 63//48 59//48 60//48
f 64//49 60//49 57//49
f 64//50 57//50 61//50
f 61//51 58//51 65//51
f 34//52 63//52 71//52 42//52
f 58//53 62//53 66//53
f 34//54 30//54 59//54 63//54
f 67//55 63//55 60//55
f 68//56 60//56 64//56
f 65//57 58//57 66//57
f 30//58 33//58 62//58 59//58
f 66//59 62//59 70//59
f 40//60 69//60 62//60 33//60
f 72//61 63//61 67//61
f 68//62 67//62 60//62
f 65//63 66//63 73//63
f 62//64 69//64 70//64
f 42//65 71//65 69//65 40//65
f 73//66 66//66 70//66
f 71//67 63//67 72//67
f 25//68 21//68 20//68 19//68
f 70//69 69//69 74//69
f 69//70 71//70 75//70
f 73//71 70//71 76//71
f 77//72 71//72 72//72
f 54//73 53//73 72//73
f 76//74 70//74 74//74
f 74//75 69//75 75//75
f 75//76 71//76 77//76
f 76//77 74//77 78//77
f 78//78 74//78 75//78
f 79//79 75//79 77//79
f 78//80 75//80 79//80
f 50//81 49//81 78//81 79//81
f 49//82 47//82 76//82 78//82
f 47//83 44//83 73//83 76//83
f 44//84 36//84 65//84 73//84
f 36//85 32//85 61//85 65//85
f 32//86 35//86 64//86 61//86
f 35//87 39//87 68//87 64//87
f 56//88 67//88 68//88
f 23//7 22//7 26//7 27//7
f 25//89 55//89 56//89 27//89
f 1//90 2//90 3//90 4//90
f 39//91 27//91 56//91 68//91
f 27//92 39//92 38//92 24//92 23//92
f 56//93 55//93 54//93 72//93 67//93
f 16//94 53//94 54//94 19//94
f 16//95 11//95 7//95 10//95
f 53//96 52//96 51//96 77//96 72//96
f 79//97 77//97 51//97
f 5//98 6//98 2//98 1//98
f 50//99 1//99 48//99
f 50//100 79//100 51//100 1//100
f 1//101 51//101 5//101
f 5//102 51//102 52//102 10//102
